<?xml version="1.0" encoding="UTF-8" standalone="no"?>
<svg
   xmlns:dc="http://purl.org/dc/elements/1.1/"
   xmlns:cc="http://creativecommons.org/ns#"
   xmlns:rdf="http://www.w3.org/1999/02/22-rdf-syntax-ns#"
   xmlns:svg="http://www.w3.org/2000/svg"
   xmlns="http://www.w3.org/2000/svg"
   xmlns:sodipodi="http://sodipodi.sourceforge.net/DTD/sodipodi-0.dtd"
   xmlns:inkscape="http://www.inkscape.org/namespaces/inkscape"
   viewBox="0 0 113 91"
   height="91"
   width="113"
   xml:space="preserve"
   id="svg2"
   version="1.1"
   sodipodi:docname="cakemix_logo_black.svg"
   inkscape:version="0.92.3 (3ce5693, 2018-03-11)"><sodipodi:namedview
     pagecolor="#ffffff"
     bordercolor="#666666"
     borderopacity="1"
     objecttolerance="10"
     gridtolerance="10"
     guidetolerance="10"
     inkscape:pageopacity="0"
     inkscape:pageshadow="2"
     inkscape:window-width="1920"
     inkscape:window-height="1052"
     id="namedview2453"
     showgrid="false"
     inkscape:zoom="4.3643742"
     inkscape:cx="73.873538"
     inkscape:cy="60.974984"
     inkscape:window-x="0"
     inkscape:window-y="0"
     inkscape:window-maximized="1"
     inkscape:current-layer="svg2" /><metadata
     id="metadata8"><rdf:RDF><cc:Work
         rdf:about=""><dc:format>image/svg+xml</dc:format><dc:type
           rdf:resource="http://purl.org/dc/dcmitype/StillImage" /><dc:title></dc:title></cc:Work></rdf:RDF></metadata><defs
     id="defs6" /><path
     id="path14"
     style="fill:#000000;fill-opacity:1;fill-rule:nonzero;stroke:none;stroke-width:1.33333325"
     d="m 99.522267,23.051896 c 0,-10.192 -19.562669,-18.4586665 -43.693335,-18.4586665 -24.129333,0 -43.691999,8.2666665 -43.691999,18.4586665 0,0 -0.01067,15.859999 1.682667,15.859999 1.833333,0 1.614666,-4.614666 4.562666,-3.464 3.041334,1.188 1.744,16.573333 9.473333,9.812 13.885333,-12.145333 10.052,15.614666 18.265333,14.704 9.792,-1.089334 10.146667,-25.245333 17.833333,-16.578667 5.656,6.38 7.125333,18.250667 14.865333,2.213334 9.562667,-19.801333 13.478669,2.552 17.489329,-1.462667 3.962673,-3.958667 3.21334,-21.083999 3.21334,-21.083999"
     inkscape:connector-curvature="0" /><path
     id="path16"
     style="fill:#000000;fill-opacity:1;fill-rule:nonzero;stroke:none;stroke-width:1.33333325"
     d="m 99.579597,50.535895 v 10.677333 h -0.0107 c 0.005,0.104 0.0107,0.209333 0.0107,0.313333 0,9.749333 -19.417332,17.656 -43.363998,17.656 -23.948,0 -43.365333,-7.906667 -43.365333,-17.656 0,-0.104 0.0053,-0.209333 0.01067,-0.313333 h -0.01067 V 50.567895 c -6.1093332,3.822666 -9.6973332,8.494666 -9.6973332,13.536 0,12.969333 23.7546662,23.447999 53.0626662,23.489332 28.983999,0.03733 52.962671,-10.503999 53.061331,-23.489332 0.0427,-5.057334 -3.56133,-9.734667 -9.697333,-13.568"
     inkscape:connector-curvature="0" /></svg>